<?xml version="1.0" encoding="utf-8"?>
<!-- Generator: Adobe Illustrator 19.0.0, SVG Export Plug-In . SVG Version: 6.00 Build 0)  -->
<svg version="1.0" id="Layer_1" xmlns="http://www.w3.org/2000/svg" xmlns:xlink="http://www.w3.org/1999/xlink" x="0px" y="0px"
	 viewBox="0 0 140 35" style="enable-background:new 0 0 140 35;" xml:space="preserve">
<style type="text/css">
	.st0{fill:#474854;}
	.st1{fill:#FFCC4A;}
	.st2{fill:#FFD76D;}
</style>
<g id="XMLID_1_">
	<g id="XMLID_2_">
		<path id="XMLID_17_" class="st0" d="M64.5,11.5c-3.6,0-6.5,2.9-6.5,6.5c0,3.6,2.9,6.5,6.5,6.5c3.6,0,6.5-2.9,6.5-6.5
			C71,14.4,68.1,11.5,64.5,11.5z M64.5,21.9c-2.1,0-3.9-1.7-3.9-3.9s1.7-3.9,3.9-3.9c2.1,0,3.9,1.7,3.9,3.9S66.6,21.9,64.5,21.9z"/>
		<path id="XMLID_13_" class="st0" d="M122.2,11.5c-3.6,0-6.5,2.9-6.5,6.5c0,3.6,2.9,6.5,6.5,6.5c3.6,0,6.5-2.9,6.5-6.5
			C128.7,14.4,125.8,11.5,122.2,11.5z M122.2,21.9c-2.1,0-3.9-1.7-3.9-3.9s1.7-3.9,3.9-3.9s3.9,1.7,3.9,3.9S124.4,21.9,122.2,21.9z"
			/>
		<path id="XMLID_34_" class="st0" d="M107.9,11.5c-3.6,0-6.5,2.9-6.5,6.5c0,3.6,2.9,6.5,6.5,6.5c3.6,0,6.5-2.9,6.5-6.5
			C114.4,14.4,111.5,11.5,107.9,11.5z M107.9,21.9c-2.1,0-3.9-1.7-3.9-3.9s1.7-3.9,3.9-3.9s3.9,1.7,3.9,3.9S110.1,21.9,107.9,21.9z"
			/>
		<path id="XMLID_14_" class="st0" d="M79.4,12.8v6.6c0,1.2-1,2.3-2.2,2.3c-1.3,0-2.3-1-2.3-2.3v-6.6c0-0.7-0.6-1.3-1.3-1.3h-1.3
			v7.8c0,2.7,2.2,4.9,4.9,4.9c2.7,0,4.9-2.2,4.9-4.9v-7.9h-1.3C80,11.5,79.4,12.1,79.4,12.8z"/>
		<path id="XMLID_12_" class="st0" d="M132.6,22.9v-6.6c0-1.2,1-2.3,2.2-2.3c1.3,0,2.3,1,2.3,2.3v6.6c0,0.7,0.6,1.3,1.3,1.3l0,0
			c0.7,0,1.3-0.6,1.3-1.3v-6.5c0-2.7-2.2-4.9-4.9-4.9c-2.7,0-4.9,2.2-4.9,4.9v7.9h1.3C132,24.2,132.6,23.6,132.6,22.9z"/>
		<path id="XMLID_32_" class="st0" d="M51.9,11.6c-1.4,0-2.7,0.6-3.6,1.6c-0.9-1-2.2-1.6-3.6-1.6c-2.7,0-4.8,2.2-4.8,4.9v6.5
			c0,0.7,0.6,1.3,1.3,1.3h0c0.7,0,1.3-0.6,1.3-1.3v-6.6c0-1.2,1-2.3,2.2-2.3c1.3,0,2.3,1,2.3,2.3v6.6c0,0.7,0.6,1.3,1.3,1.3h0
			c0.7,0,1.3-0.6,1.3-1.3v-6.6c0-1.2,1-2.3,2.2-2.3c1.3,0,2.3,1,2.3,2.3v6.6c0,0.7,0.6,1.3,1.3,1.3h1.3v-7.8
			C56.7,13.8,54.5,11.6,51.9,11.6z"/>
		<path id="XMLID_25_" class="st0" d="M95.3,11.5c-1.4,0-2.7,0.6-3.6,1.6c-0.9-1-2.2-1.6-3.6-1.6c-2.7,0-4.8,2.2-4.8,4.9v7.8h1.3
			c0.7,0,1.3-0.6,1.3-1.3v-6.6c0-1.2,1-2.3,2.2-2.3c1.3,0,2.3,1,2.3,2.3v6.6c0,0.7,0.6,1.3,1.3,1.3l0,0c0.7,0,1.3-0.6,1.3-1.3v-6.6
			c0-1.2,1-2.3,2.2-2.3c1.3,0,2.3,1,2.3,2.3v6.6c0,0.7,0.6,1.3,1.3,1.3h1.3v-7.8C100.1,13.7,98,11.5,95.3,11.5z"/>
	</g>
	<g id="XMLID_3_">
		<g id="XMLID_10_">
			<circle id="XMLID_9_" class="st1" cx="16.7" cy="18" r="16.2"/>
			<circle id="XMLID_6_" class="st1" cx="16.7" cy="18" r="16.2"/>
			<path id="XMLID_20_" class="st1" d="M8.6,13.9c0-4.7,2-8.9,5.2-11.9C6.2,3.4,0.5,10,0.5,18c0,9,7.3,16.2,16.2,16.2
				c4.3,0,8.1-1.6,11-4.3c-0.9,0.2-1.9,0.3-2.9,0.3C15.8,30.1,8.6,22.9,8.6,13.9z"/>
			<path id="XMLID_22_" class="st2" d="M32.9,18c0-9-7.3-16.2-16.2-16.2c-1,0-2,0.1-2.9,0.3c-3.2,3-5.2,7.2-5.2,11.9
				c0,9,7.3,16.2,16.2,16.2c1,0,2-0.1,2.9-0.3C30.9,26.9,32.9,22.7,32.9,18z"/>
			<circle id="XMLID_18_" class="st2" cx="10.2" cy="9.9" r="3.2"/>
			<circle id="XMLID_21_" class="st2" cx="6.9" cy="13.5" r="2"/>
			<path id="XMLID_24_" class="st1" d="M11.5,10.4c0,0.7-0.3,1.3-0.8,1.8c1.1-0.2,2-1.2,2-2.4c0-1.3-1.1-2.4-2.4-2.4
				c-0.6,0-1.2,0.2-1.6,0.6c0.1,0,0.3,0,0.4,0C10.4,8,11.5,9.1,11.5,10.4z"/>
			<path id="XMLID_28_" class="st1" d="M25.6,22.6c0,0.7-0.3,1.3-0.8,1.8c1.1-0.2,2-1.2,2-2.4c0-1.3-1.1-2.4-2.4-2.4
				c-0.6,0-1.2,0.2-1.6,0.6c0.1,0,0.3,0,0.4,0C24.5,20.2,25.6,21.3,25.6,22.6z"/>
			<path id="XMLID_26_" class="st1" d="M7.8,13.9c0,0.4-0.2,0.8-0.5,1.1c0.7-0.1,1.2-0.7,1.2-1.5C8.5,12.7,7.8,12,7,12
				c-0.4,0-0.7,0.2-1,0.4c0.1,0,0.2,0,0.3,0C7.1,12.4,7.8,13.1,7.8,13.9z"/>
			<path id="XMLID_31_" class="st1" d="M21.3,11.9c0,0.4-0.2,0.8-0.5,1.1c0.7-0.1,1.2-0.7,1.2-1.5c0-0.8-0.7-1.5-1.5-1.5
				c-0.4,0-0.7,0.2-1,0.4c0.1,0,0.2,0,0.3,0C20.6,10.4,21.3,11,21.3,11.9z"/>
			<path id="XMLID_30_" class="st1" d="M13.1,18.4c0,0.4-0.2,0.8-0.5,1.1c0.7-0.1,1.2-0.7,1.2-1.5c0-0.8-0.7-1.5-1.5-1.5
				c-0.4,0-0.7,0.2-1,0.4c0.1,0,0.2,0,0.3,0C12.5,16.9,13.1,17.5,13.1,18.4z"/>
			<path id="XMLID_29_" class="st1" d="M21.3,26.5c0,0.4-0.2,0.8-0.5,1.1c0.7-0.1,1.2-0.7,1.2-1.5c0-0.8-0.7-1.5-1.5-1.5
				c-0.4,0-0.7,0.2-1,0.4c0.1,0,0.2,0,0.3,0C20.6,25,21.3,25.6,21.3,26.5z"/>
			<path id="XMLID_27_" class="st1" d="M25.1,11.7c0,0.3-0.1,0.5-0.3,0.7c0.4-0.1,0.8-0.5,0.8-1c0-0.5-0.4-1-1-1
				c-0.3,0-0.5,0.1-0.7,0.3c0.1,0,0.1,0,0.2,0C24.7,10.7,25.1,11.2,25.1,11.7z"/>
			<path id="XMLID_33_" class="st1" d="M17,7.2c0,0.3-0.1,0.5-0.3,0.7c0.4-0.1,0.8-0.5,0.8-1c0-0.5-0.4-1-1-1
				c-0.3,0-0.5,0.1-0.7,0.3c0.1,0,0.1,0,0.2,0C16.6,6.2,17,6.7,17,7.2z"/>
		</g>
		<g id="XMLID_4_">
			<path id="XMLID_160_" class="st2" d="M25.5,22.7c-0.2,0.4-0.2,0.5-0.4,0.6c-0.1,0-0.2,0-0.2,0c-0.1,0-0.2-0.1-0.2-0.2
				c-0.1-0.1-0.1-0.2,0.1-0.7c0.2-0.5,0.2-0.6,0.3-0.7c0.1-0.1,0.2-0.1,0.3,0c0.1,0,0.2,0.1,0.3,0.3C25.9,22.1,25.7,22.2,25.5,22.7z
				"/>
			<path id="XMLID_157_" class="st1" d="M25.6,22.2L25.1,22c0,0,0,0,0,0l0,0.1c0,0,0,0,0,0l0.5,0.2C25.6,22.3,25.6,22.3,25.6,22.2
				L25.6,22.2C25.7,22.3,25.7,22.2,25.6,22.2z"/>
			<path id="XMLID_154_" class="st1" d="M25.5,22.4L25,22.2c0,0,0,0,0,0l0,0.1c0,0,0,0,0,0L25.5,22.4C25.5,22.5,25.5,22.5,25.5,22.4
				L25.5,22.4C25.6,22.4,25.6,22.4,25.5,22.4z"/>
			<path id="XMLID_151_" class="st1" d="M25.5,22.6l-0.5-0.2c0,0,0,0,0,0l0,0.1c0,0,0,0,0,0L25.5,22.6
				C25.5,22.7,25.5,22.7,25.5,22.6L25.5,22.6C25.5,22.6,25.5,22.6,25.5,22.6z"/>
			<path id="XMLID_148_" class="st1" d="M25.4,22.8l-0.5-0.2c0,0,0,0,0,0l0,0.1c0,0,0,0,0,0L25.4,22.8
				C25.4,22.9,25.4,22.9,25.4,22.8L25.4,22.8C25.4,22.8,25.4,22.8,25.4,22.8z"/>
			<path id="XMLID_145_" class="st1" d="M25.3,23l-0.5-0.2c0,0,0,0,0,0l0,0.1c0,0,0,0,0,0L25.3,23C25.3,23.1,25.3,23.1,25.3,23
				L25.3,23C25.3,23,25.3,23,25.3,23z"/>
			<path id="XMLID_142_" class="st1" d="M25.7,22c-0.2-0.1-0.3-0.2-0.5-0.2c0,0,0,0,0,0c0,0,0,0,0,0.1c0,0,0,0,0,0
				C25.3,22,25.5,22.1,25.7,22C25.7,22.1,25.7,22.1,25.7,22C25.7,22.1,25.7,22.1,25.7,22C25.7,22.1,25.7,22.1,25.7,22z"/>
			<path id="XMLID_65_" class="st1" d="M25.5,21.8c0.1,0,0.2,0.2,0.3,0.3c0,0,0,0.1,0,0.1c0-0.1,0-0.1,0-0.2
				C25.8,21.8,25.7,21.7,25.5,21.8c-0.1-0.1-0.2-0.1-0.3-0.1c-0.1,0-0.1,0.1-0.2,0.3c0.1-0.1,0.1-0.2,0.2-0.2
				C25.3,21.7,25.4,21.7,25.5,21.8z"/>
			<path id="XMLID_62_" class="st1" d="M25.2,23.2c-0.1,0-0.2,0-0.2,0c-0.1,0-0.2-0.1-0.2-0.2c0,0,0-0.1,0-0.1c0,0.1,0,0.1,0,0.2
				c0,0.1,0.1,0.1,0.2,0.2C25,23.3,25.1,23.3,25.2,23.2c0.1,0,0.1-0.1,0.2-0.2C25.3,23.1,25.3,23.2,25.2,23.2z"/>
		</g>
	</g>
</g>
</svg>
