<svg version="1.1" id="Layer_1" xmlns="http://www.w3.org/2000/svg" xmlns:xlink="http://www.w3.org/1999/xlink" x="0px" y="0px"
	 viewBox="0 0 100 35" style="enable-background:new 0 0 100 35; width: 100px;" xml:space="preserve">
<style type="text/css">
	.st0{fill:#ADB4BE;}
	.st1{fill:#D5D8DB;}
</style>
<g id="XMLID_100_">
	<g id="XMLID_87_">
		<path id="XMLID_184_" class="st0" d="M6.1,14.1c0-3.4,1.4-6.4,3.7-8.5c-5.4,1-9.5,5.7-9.5,11.4c0,6.4,5.2,11.6,11.6,11.6
			c3,0,5.8-1.2,7.9-3.1c-0.7,0.1-1.4,0.2-2.1,0.2C11.3,25.7,6.1,20.5,6.1,14.1z"/>
		<circle id="XMLID_183_" class="st0" cx="11.9" cy="17" r="11.6"/>
		<path id="XMLID_182_" class="st1" d="M23.5,17c0-6.4-5.2-11.6-11.6-11.6c-0.7,0-1.4,0.1-2.1,0.2c-2.3,2.1-3.7,5.2-3.7,8.5
			c0,6.4,5.2,11.6,11.6,11.6c0.7,0,1.4-0.1,2.1-0.2C22.1,23.4,23.5,20.4,23.5,17z"/>
		<circle id="XMLID_181_" class="st1" cx="7.2" cy="11.2" r="2.3"/>
		<circle id="XMLID_180_" class="st1" cx="4.9" cy="13.8" r="1.5"/>
		<path id="XMLID_179_" class="st0" d="M8.2,11.6c0,0.5-0.2,1-0.6,1.3C8.4,12.8,9,12,9,11.2c0-1-0.8-1.7-1.7-1.7
			c-0.5,0-0.9,0.2-1.2,0.5c0.1,0,0.2,0,0.3,0C7.4,9.9,8.2,10.7,8.2,11.6z"/>
		<path id="XMLID_178_" class="st0" d="M18.3,20.4c0,0.5-0.2,1-0.6,1.3c0.8-0.1,1.4-0.9,1.4-1.7c0-1-0.8-1.7-1.7-1.7
			c-0.5,0-0.9,0.2-1.2,0.5c0.1,0,0.2,0,0.3,0C17.5,18.6,18.3,19.4,18.3,20.4z"/>
		<path id="XMLID_177_" class="st0" d="M5.5,14.1c0,0.3-0.1,0.6-0.3,0.8C5.6,14.8,6,14.4,6,13.8c0-0.6-0.5-1.1-1.1-1.1
			c-0.3,0-0.5,0.1-0.7,0.3c0.1,0,0.1,0,0.2,0C5,13,5.5,13.5,5.5,14.1z"/>
		<path id="XMLID_176_" class="st0" d="M15.1,12.7c0,0.3-0.1,0.6-0.3,0.8c0.5-0.1,0.9-0.5,0.9-1.1c0-0.6-0.5-1.1-1.1-1.1
			c-0.3,0-0.5,0.1-0.7,0.3c0.1,0,0.1,0,0.2,0C14.7,11.6,15.1,12.1,15.1,12.7z"/>
		<path id="XMLID_175_" class="st0" d="M9.3,17.3c0,0.3-0.1,0.6-0.3,0.8C9.5,18,9.9,17.6,9.9,17c0-0.6-0.5-1.1-1.1-1.1
			c-0.3,0-0.5,0.1-0.7,0.3c0.1,0,0.1,0,0.2,0C8.9,16.2,9.3,16.7,9.3,17.3z"/>
		<path id="XMLID_174_" class="st0" d="M15.1,23.1c0,0.3-0.1,0.6-0.3,0.8c0.5-0.1,0.9-0.5,0.9-1.1c0-0.6-0.5-1.1-1.1-1.1
			c-0.3,0-0.5,0.1-0.7,0.3c0.1,0,0.1,0,0.2,0C14.7,22,15.1,22.5,15.1,23.1z"/>
		<path id="XMLID_173_" class="st0" d="M17.9,12.5c0,0.2-0.1,0.4-0.2,0.5c0.3-0.1,0.6-0.3,0.6-0.7c0-0.4-0.3-0.7-0.7-0.7
			c-0.2,0-0.3,0.1-0.5,0.2c0,0,0.1,0,0.1,0C17.6,11.8,17.9,12.2,17.9,12.5z"/>
		<path id="XMLID_172_" class="st0" d="M12.1,9.3c0,0.2-0.1,0.4-0.2,0.5c0.3-0.1,0.6-0.3,0.6-0.7c0-0.4-0.3-0.7-0.7-0.7
			c-0.2,0-0.3,0.1-0.5,0.2c0,0,0.1,0,0.1,0C11.8,8.6,12.1,8.9,12.1,9.3z"/>
		<g id="XMLID_162_">
			<path id="XMLID_171_" class="st1" d="M18.2,20.4c-0.1,0.3-0.1,0.4-0.3,0.4c-0.1,0-0.1,0-0.2,0c-0.1,0-0.1-0.1-0.2-0.1
				c0-0.1,0-0.2,0.1-0.5c0.1-0.4,0.2-0.5,0.2-0.5c0.1,0,0.2,0,0.2,0c0.1,0,0.2,0.1,0.2,0.2C18.5,20,18.4,20.1,18.2,20.4z"/>
			<path id="XMLID_170_" class="st0" d="M18.3,20.1l-0.4-0.2c0,0,0,0,0,0l0,0c0,0,0,0,0,0L18.3,20.1C18.3,20.2,18.3,20.2,18.3,20.1
				L18.3,20.1C18.3,20.1,18.3,20.1,18.3,20.1z"/>
			<path id="XMLID_169_" class="st0" d="M18.2,20.2l-0.4-0.1c0,0,0,0,0,0l0,0c0,0,0,0,0,0L18.2,20.2C18.2,20.3,18.2,20.3,18.2,20.2
				L18.2,20.2C18.2,20.2,18.2,20.2,18.2,20.2z"/>
			<path id="XMLID_168_" class="st0" d="M18.2,20.4l-0.4-0.1c0,0,0,0,0,0l0,0c0,0,0,0,0,0L18.2,20.4C18.2,20.4,18.2,20.4,18.2,20.4
				L18.2,20.4C18.2,20.4,18.2,20.4,18.2,20.4z"/>
			<path id="XMLID_167_" class="st0" d="M18.1,20.5l-0.4-0.1c0,0,0,0,0,0l0,0c0,0,0,0,0,0L18.1,20.5C18.1,20.6,18.1,20.6,18.1,20.5
				L18.1,20.5C18.1,20.5,18.1,20.5,18.1,20.5z"/>
			<path id="XMLID_166_" class="st0" d="M18.1,20.7l-0.3-0.1c0,0,0,0,0,0l0,0c0,0,0,0,0,0L18.1,20.7C18,20.7,18,20.7,18.1,20.7
				L18.1,20.7C18.1,20.7,18.1,20.7,18.1,20.7z"/>
			<path id="XMLID_165_" class="st0" d="M18.3,19.9c-0.1-0.1-0.2-0.1-0.4-0.2c0,0,0,0,0,0c0,0,0,0,0,0c0,0,0,0,0,0
				C18.1,19.9,18.2,20,18.3,19.9C18.3,20,18.3,20,18.3,19.9C18.3,20,18.3,20,18.3,19.9C18.4,20,18.4,20,18.3,19.9z"/>
			<path id="XMLID_164_" class="st0" d="M18.2,19.7c0.1,0,0.2,0.1,0.2,0.2c0,0,0,0,0,0.1c0,0,0-0.1,0-0.1
				C18.4,19.8,18.3,19.7,18.2,19.7c-0.1-0.1-0.2-0.1-0.2,0c-0.1,0-0.1,0.1-0.1,0.2c0-0.1,0.1-0.1,0.1-0.1
				C18,19.7,18.1,19.7,18.2,19.7z"/>
			<path id="XMLID_163_" class="st0" d="M18,20.8c-0.1,0-0.2,0-0.2,0c-0.1,0-0.1-0.1-0.2-0.1c0,0,0-0.1,0-0.1c0,0.1,0,0.1,0,0.1
				c0,0,0.1,0.1,0.2,0.1C17.8,20.8,17.9,20.8,18,20.8c0.1,0,0.1,0,0.1-0.1C18.1,20.7,18,20.8,18,20.8z"/>
		</g>
	</g>
	<g id="XMLID_76_">
		<path id="XMLID_158_" class="st0" d="M46.1,12.4c-2.6,0-4.6,2.1-4.6,4.6s2.1,4.6,4.6,4.6c2.6,0,4.6-2.1,4.6-4.6
			S48.7,12.4,46.1,12.4z M46.1,19.8c-1.5,0-2.8-1.2-2.8-2.8s1.2-2.8,2.8-2.8c1.5,0,2.8,1.2,2.8,2.8S47.7,19.8,46.1,19.8z"/>
		<path id="XMLID_153_" class="st0" d="M87.5,12.4c-2.6,0-4.6,2.1-4.6,4.6s2.1,4.6,4.6,4.6c2.6,0,4.6-2.1,4.6-4.6S90,12.4,87.5,12.4
			z M87.5,19.8c-1.5,0-2.8-1.2-2.8-2.8s1.2-2.8,2.8-2.8c1.5,0,2.8,1.2,2.8,2.8S89,19.8,87.5,19.8z"/>
		<path id="XMLID_149_" class="st0" d="M77.2,12.4c-2.6,0-4.6,2.1-4.6,4.6s2.1,4.6,4.6,4.6c2.6,0,4.6-2.1,4.6-4.6
			S79.8,12.4,77.2,12.4z M77.2,19.8c-1.5,0-2.8-1.2-2.8-2.8s1.2-2.8,2.8-2.8c1.5,0,2.8,1.2,2.8,2.8S78.8,19.8,77.2,19.8z"/>
		<path id="XMLID_147_" class="st0" d="M56.8,13.3V18c0,0.9-0.7,1.6-1.6,1.6c-0.9,0-1.6-0.7-1.6-1.6v-4.7c0-0.5-0.4-0.9-0.9-0.9
			h-0.9V18c0,1.9,1.6,3.5,3.5,3.5c1.9,0,3.5-1.6,3.5-3.5v-5.6h-0.9C57.2,12.4,56.8,12.8,56.8,13.3z"/>
		<path id="XMLID_146_" class="st0" d="M94.9,20.6v-4.7c0-0.9,0.7-1.6,1.6-1.6c0.9,0,1.6,0.7,1.6,1.6v4.7c0,0.5,0.4,0.9,0.9,0.9h0
			c0.5,0,0.9-0.4,0.9-0.9v-4.7c0-1.9-1.6-3.5-3.5-3.5c-1.9,0-3.5,1.6-3.5,3.5v5.6H94C94.5,21.5,94.9,21.1,94.9,20.6z"/>
		<path id="XMLID_144_" class="st0" d="M37.1,12.5c-1,0-1.9,0.4-2.6,1.1c-0.6-0.7-1.6-1.1-2.6-1.1c-1.9,0-3.5,1.6-3.5,3.5v4.7
			c0,0.5,0.4,0.9,0.9,0.9h0c0.5,0,0.9-0.4,0.9-0.9V16c0-0.9,0.7-1.6,1.6-1.6c0.9,0,1.6,0.7,1.6,1.6v4.7c0,0.5,0.4,0.9,0.9,0.9l0,0
			c0.5,0,0.9-0.4,0.9-0.9V16c0-0.9,0.7-1.6,1.6-1.6c0.9,0,1.6,0.7,1.6,1.6v4.7c0,0.5,0.4,0.9,0.9,0.9h0.9V16
			C40.5,14.1,39,12.5,37.1,12.5z"/>
		<path id="XMLID_143_" class="st0" d="M68.2,12.4c-1,0-1.9,0.4-2.6,1.1c-0.6-0.7-1.6-1.1-2.6-1.1c-1.9,0-3.5,1.6-3.5,3.5v5.6h0.9
			c0.5,0,0.9-0.4,0.9-0.9v-4.7c0-0.9,0.7-1.6,1.6-1.6c0.9,0,1.6,0.7,1.6,1.6v4.7c0,0.5,0.4,0.9,0.9,0.9h0c0.5,0,0.9-0.4,0.9-0.9
			v-4.7c0-0.9,0.7-1.6,1.6-1.6c0.9,0,1.6,0.7,1.6,1.6v4.7c0,0.5,0.4,0.9,0.9,0.9h0.9v-5.6C71.7,14,70.1,12.4,68.2,12.4z"/>
	</g>
</g>
</svg>